HIERARCHY
ROOT hip
{
  OFFSET 0 0 0
  CHANNELS 6 Xposition Yposition Zposition Zrotation Yrotation Xrotation
  JOINT abdomen
  {
    OFFSET 0 20.6881 -0.73152
    CHANNELS 3 Zrotation Xrotation Yrotation
    JOINT chest
    {
      OFFSET 0 11.7043 -0.48768
      CHANNELS 3 Zrotation Xrotation Yrotation
      JOINT neck
      {
        OFFSET 0 22.1894 -2.19456
        CHANNELS 3 Zrotation Xrotation Yrotation
        JOINT head
        {
          OFFSET -0.24384 7.07133 1.2192
          CHANNELS 3 Zrotation Xrotation Yrotation
          JOINT leftEye
          {
            OFFSET 4.14528 8.04674 8.04672
            CHANNELS 3 Zrotation Xrotation Yrotation
            End Site
            {
              OFFSET 1 0 0
            }
          }
          JOINT rightEye
          {
            OFFSET -3.6576 8.04674 8.04672
            CHANNELS 3 Zrotation Xrotation Yrotation
            End Site
            {
              OFFSET 1 0 0
            }
          }
        }
      }
      JOINT rCollar
      {
        OFFSET -2.68224 19.2634 -4.8768
        CHANNELS 3 Zrotation Xrotation Yrotation
        JOINT rShldr
        {
          OFFSET -8.77824 -1.95073 1.46304
          CHANNELS 3 Zrotation Xrotation Yrotation
          JOINT rForeArm
          {
            OFFSET -28.1742 -1.7115 0.48768
            CHANNELS 3 Zrotation Xrotation Yrotation
            JOINT rHand
            {
              OFFSET -22.5879 0.773209 7.07136
              CHANNELS 3 Zrotation Xrotation Yrotation
              JOINT rThumb1
              {
                OFFSET -1.2192 -0.487915 3.41376
                CHANNELS 3 Zrotation Xrotation Yrotation
                JOINT rThumb2
                {
                  OFFSET -3.37035 -0.52449 3.41376
                  CHANNELS 3 Zrotation Xrotation Yrotation
                  End Site
                  {
                    OFFSET -1.78271 -1.18214 1.43049
                  }
                }
              }
              JOINT rIndex1
              {
                OFFSET -7.75947 0.938293 5.60832
                CHANNELS 3 Zrotation Xrotation Yrotation
                JOINT rIndex2
                {
                  OFFSET -2.54057 -0.884171 1.56538
                  CHANNELS 3 Zrotation Xrotation Yrotation
                  End Site
                  {
                    OFFSET -1.62519 -0.234802 1.16502
                  }
                }
              }
              JOINT rMid1
              {
                OFFSET -8.24714 1.18213 3.41376
                CHANNELS 3 Zrotation Xrotation Yrotation
                JOINT rMid2
                {
                  OFFSET -3.10165 -0.590103 1.0647
                  CHANNELS 3 Zrotation Xrotation Yrotation
                  End Site
                  {
                    OFFSET -2.48547 -0.328903 0.83742
                  }
                }
              }
              JOINT rRing1
              {
                OFFSET -8.82822 0.546677 1.51678
                CHANNELS 3 Zrotation Xrotation Yrotation
                JOINT rRing2
                {
                  OFFSET -2.60934 -0.819778 -0.0198488
                  CHANNELS 3 Zrotation Xrotation Yrotation
                  End Site
                  {
                    OFFSET -2.33842 -0.294052 0.168128
                  }
                }
              }
              JOINT rPinky1
              {
                OFFSET -8.27202 -0.0477905 -0.4584
                CHANNELS 3 Zrotation Xrotation Yrotation
                JOINT rPinky2
                {
                  OFFSET -1.82734 -0.647385 -0.700984
                  CHANNELS 3 Zrotation Xrotation Yrotation
                  End Site
                  {
                    OFFSET -1.69225 -0.51767 -0.607171
                  }
                }
              }
            }
          }
        }
      }
      JOINT lCollar
      {
        OFFSET 2.68224 19.2634 -4.8768
        CHANNELS 3 Zrotation Xrotation Yrotation
        JOINT lShldr
        {
          OFFSET 8.77824 -1.95073 1.46304
          CHANNELS 3 Zrotation Xrotation Yrotation
          JOINT lForeArm
          {
            OFFSET 28.1742 -1.7115 0.48768
            CHANNELS 3 Zrotation Xrotation Yrotation
            JOINT lHand
            {
              OFFSET 22.5879 0.773209 7.07136
              CHANNELS 3 Zrotation Xrotation Yrotation
              JOINT lThumb1
              {
                OFFSET 1.2192 -0.487915 3.41376
                CHANNELS 3 Zrotation Xrotation Yrotation
                JOINT lThumb2
                {
                  OFFSET 3.37035 -0.52449 3.41376
                  CHANNELS 3 Zrotation Xrotation Yrotation
                  End Site
                  {
                    OFFSET 1.78271 -1.18214 1.43049
                  }
                }
              }
              JOINT lIndex1
              {
                OFFSET 7.75947 0.938293 5.60832
                CHANNELS 3 Zrotation Xrotation Yrotation
                JOINT lIndex2
                {
                  OFFSET 2.54057 -0.884171 1.56538
                  CHANNELS 3 Zrotation Xrotation Yrotation
                  End Site
                  {
                    OFFSET 1.62519 -0.234802 1.16502
                  }
                }
              }
              JOINT lMid1
              {
                OFFSET 8.24714 1.18213 3.41376
                CHANNELS 3 Zrotation Xrotation Yrotation
                JOINT lMid2
                {
                  OFFSET 3.10165 -0.590103 1.0647
                  CHANNELS 3 Zrotation Xrotation Yrotation
                  End Site
                  {
                    OFFSET 2.48547 -0.328903 0.83742
                  }
                }
              }
              JOINT lRing1
              {
                OFFSET 8.82822 0.546677 1.51678
                CHANNELS 3 Zrotation Xrotation Yrotation
                JOINT lRing2
                {
                  OFFSET 2.60934 -0.819778 -0.0198488
                  CHANNELS 3 Zrotation Xrotation Yrotation
                  End Site
                  {
                    OFFSET 2.33842 -0.294052 0.168128
                  }
                }
              }
              JOINT lPinky1
              {
                OFFSET 8.27202 -0.0477905 -0.4584
                CHANNELS 3 Zrotation Xrotation Yrotation
                JOINT lPinky2
                {
                  OFFSET 1.82734 -0.647385 -0.700984
                  CHANNELS 3 Zrotation Xrotation Yrotation
                  End Site
                  {
                    OFFSET 1.69225 -0.51767 -0.607171
                  }
                }
              }
            }
          }
        }
      }
    }
  }
  JOINT rButtock
  {
    OFFSET -8.77824 4.35084 1.2192
    CHANNELS 3 Zrotation Xrotation Yrotation
    JOINT rThigh
    {
      OFFSET 0 -1.70687 -2.19456
      CHANNELS 3 Zrotation Xrotation Yrotation
      JOINT rShin
      {
        OFFSET 0 -36.8199 0.73152
        CHANNELS 3 Zrotation Xrotation Yrotation
        JOINT rFoot
        {
          OFFSET 0.73152 -45.1104 -5.12064
          CHANNELS 3 Zrotation Xrotation Yrotation
          End Site
          {
            OFFSET -1.1221 -3.69964 12.103
          }
        }
      }
    }
  }
  JOINT lButtock
  {
    OFFSET 8.77824 4.35084 1.2192
    CHANNELS 3 Zrotation Xrotation Yrotation
    JOINT lThigh
    {
      OFFSET 0 -1.70687 -2.19456
      CHANNELS 3 Zrotation Xrotation Yrotation
      JOINT lShin
      {
        OFFSET 0 -36.8199 0.73152
        CHANNELS 3 Zrotation Xrotation Yrotation
        JOINT lFoot
        {
          OFFSET -0.73152 -45.1104 -5.12064
          CHANNELS 3 Zrotation Xrotation Yrotation
          End Site
          {
            OFFSET 1.1221 -3.69964 12.103
          }
        }
      }
    }
  }
}
MOTION
Frames:	6
Frame Time:	0.00833333
40.6805 85.5886 216.158 0.0 0.0 0.0 2.72259 0.000518371 0.0736201 0.750833 0.0131642 0.129928 -5.0911e-14 -7.95139e-16 -4.47265e-16 -1.539e-13 3.18055e-15 -1.24551e-15 -0.0 0.0 0.0 -0.0 0.0 0.0 -2.57445e-14 4.23194e-17 4.96962e-17 -5.42491e-13 9.50439e-16 -5.96354e-15 -9.37126e-12 2.82433e-12 0.0 -1.07013e-10 -2.64187e-12 -1.08775e-12 -2.52471e-10 3.91445e-13 -2.31862e-12 -4.36014e-10 6.71097e-13 -3.99398e-12 -2.52464e-10 3.93196e-13 -2.3218e-12 7.73091 5.47488 0.417314 -2.52471e-10 3.91308e-13 -2.30908e-12 2.90554 0.965183 0.102902 -2.52464e-10 3.91705e-13 -2.31147e-12 10.2786 0.731801 0.0259123 -2.52473e-10 3.92003e-13 -2.29954e-12 2.22167 -0.733487 -0.20892 -2.59411e-14 3.80486e-17 -4.47265e-16 -5.43992e-13 9.38015e-16 -7.15625e-15 -9.32941e-12 -2.77921e-12 1.27222e-14 -1.07017e-10 2.9556e-12 -1.07821e-12 -2.52384e-10 3.80491e-13 -2.3059e-12 -4.3584e-10 6.52014e-13 -3.98683e-12 -2.52386e-10 3.80474e-13 -2.3059e-12 -7.73091 5.47488 -0.417314 -2.52383e-10 3.79778e-13 -2.31862e-12 -2.90554 0.965183 -0.102902 -2.52391e-10 3.80474e-13 -2.31544e-12 -10.2786 0.731801 -0.0259123 -2.52377e-10 3.82064e-13 -2.33135e-12 -2.22167 -0.733487 0.20892 -2.03217e-16 0.0 -3.88251e-19 2.53303 -8.65198 -0.274476 0.00739475 10.0933 0.189514 -0.516949 -1.45222 0.028622 2.03217e-16 0.0 3.88251e-19 1.60795 -1.93183 -0.00953392 0.00859901 -2.07865 0.0706309 0.458784 3.99948 -0.132464
42.204 84.6113 207.644 179.823 1.0899 -172.288 1.32372 -2.03505 1.08334 2.15567 1.31924 0.379086 -0.781548 1.84513 -0.0403334 1.45029 -0.958499 -0.358726 -0.0 0.0 0.0 -0.0 0.0 0.0 -1.97856e-14 2.81152e-14 5.08881e-15 23.4326 -2.20726 -1.80358 -3.32107 -1.36559 5.33281 0.0720084 6.01823 0.829557 -1.15398e-11 9.79446e-11 2.90467e-11 -1.87822e-11 1.69417e-10 4.74831e-11 -1.15353e-11 9.79471e-11 2.90409e-11 7.73091 5.47488 0.417314 -1.1541e-11 9.79453e-11 2.90536e-11 2.90554 0.965183 0.102902 -1.15344e-11 9.79457e-11 2.90526e-11 10.2786 0.731801 0.0259123 -1.1542e-11 9.79466e-11 2.90623e-11 2.22167 -0.733487 -0.20892 -1.99509e-14 2.81122e-14 4.67455e-15 -22.31 2.14668 0.182919 1.70548 -0.563298 -2.84925 -0.236285 10.8198 -1.42457 -2.55447e-10 4.07889e-11 2.46594e-10 -4.32405e-10 7.31443e-11 4.27182e-10 -2.5545e-10 4.07926e-11 2.46597e-10 -7.73091 5.47488 -0.417314 -2.55446e-10 4.07917e-11 2.46584e-10 -2.90554 0.965183 -0.102902 -2.55455e-10 4.07928e-11 2.46587e-10 -10.2786 0.731801 -0.0259123 -2.55443e-10 4.07938e-11 2.46574e-10 -2.22167 -0.733487 0.20892 -2.03217e-16 0.0 -3.88251e-19 2.47015 -9.51692 0.046428 0.00267163 11.9059 0.220879 -0.599646 -4.70884 -1.20286 2.03217e-16 0.0 3.88251e-19 1.77195 -3.92363 -2.67019 0.0165321 1.98027 -0.0259113 0.548211 -0.739219 1.0258
42.1967 84.6213 207.696 179.784 1.1427 -172.383 -0.0751322 -4.18675 2.15512 3.62904 2.69765 0.643082 -1.60277 3.80278 -0.0829827 2.95123 -2.0448 -0.721278 -0.0 0.0 0.0 -0.0 0.0 0.0 -1.37868e-14 6.21882e-14 9.7684e-15 48.0414 -4.59697 -3.72455 -6.54421 -2.7619 10.9601 -0.0471425 12.4746 1.75162 2.61113e-10 2.09197e-10 5.37194e-11 4.53252e-10 3.61905e-10 8.70256e-11 2.61115e-10 2.09201e-10 5.37106e-11 7.73091 5.47488 0.417314 2.6111e-10 2.09199e-10 5.37233e-11 2.90554 0.965183 0.102902 2.61116e-10 2.09199e-10 5.37237e-11 10.2786 0.731801 0.0259123 2.61111e-10 2.09201e-10 5.37311e-11 2.22167 -0.733487 -0.20892 -1.39197e-14 6.21865e-14 9.44227e-15 -45.9054 4.38906 0.388914 3.44131 -1.15141 -5.85174 0.141714 22.25 -3.11199 -2.74901e-10 8.56701e-11 5.35386e-10 -4.55889e-10 1.53862e-10 9.27699e-10 -2.74905e-10 8.56781e-11 5.35392e-10 -7.73091 5.47488 -0.417314 -2.74899e-10 8.56769e-11 5.35378e-10 -2.90554 0.965183 -0.102902 -2.7491e-10 8.56784e-11 5.35382e-10 -10.2786 0.731801 -0.0259123 -2.74901e-10 8.56788e-11 5.35371e-10 -2.22167 -0.733487 0.20892 -2.03217e-16 0.0 -3.88251e-19 2.41222 -10.4264 0.382379 -0.00457391 13.8162 0.254708 -0.839939 -8.14251 -2.51814 2.03217e-16 0.0 3.88251e-19 1.74421 -6.00644 -5.49319 0.0398265 6.26003 -0.128263 0.849122 -5.71112 2.25285
42.2051 84.6264 207.759 179.807 1.2133 -172.41 -1.25784 -6.09831 3.11838 4.9312 3.93103 0.879167 -2.33682 5.53538 -0.121504 4.31483 -2.87505 -1.07738 -0.0 0.0 0.0 -0.0 0.0 0.0 -7.86769e-15 8.42609e-14 1.5167e-14 69.8792 -6.59547 -5.44284 -9.21008 -3.95505 16.0331 -0.329592 18.0391 2.60299 4.70323e-10 2.93051e-10 9.17775e-11 8.15681e-10 5.06909e-10 1.50437e-10 4.70322e-10 2.93055e-10 9.17662e-11 7.73091 5.47488 0.417314 4.70319e-10 2.93053e-10 9.1779e-11 2.90554 0.965183 0.102902 4.70325e-10 2.93054e-10 9.17806e-11 10.2786 0.731801 0.0259123 4.70321e-10 2.93056e-10 9.17859e-11 2.22167 -0.733487 -0.20892 -7.97038e-15 8.42604e-14 1.49182e-14 -66.9713 6.43977 0.551854 4.949 -1.67319 -8.55102 1.15548 32.3715 -4.9719 -2.61574e-10 1.21606e-10 7.44394e-10 -4.25536e-10 2.18129e-10 1.28952e-09 -2.6158e-10 1.21617e-10 7.44402e-10 -7.73091 5.47488 -0.417314 -2.61571e-10 1.21616e-10 7.44389e-10 -2.90554 0.965183 -0.102902 -2.61583e-10 1.21617e-10 7.44393e-10 -10.2786 0.731801 -0.0259123 -2.61576e-10 1.21617e-10 7.44385e-10 -2.22167 -0.733487 0.20892 -2.03217e-16 0.0 -3.88251e-19 2.374 -11.2458 0.693386 -0.0129809 15.5311 0.285651 -1.19189 -11.2021 -3.72468 2.03217e-16 0.0 3.88251e-19 1.54243 -7.84295 -8.04849 0.0738127 10.098 -0.2223 1.30772 -10.1994 3.39516
42.2079 84.6305 207.821 179.799 1.2823 -172.462 -2.05343 -7.41697 3.79549 5.82938 4.80216 1.04386 -2.85848 6.70538 -0.149221 5.36311 -3.06558 -1.41592 -0.0 0.0 0.0 -0.0 0.0 0.0 -2.14782e-15 7.63329e-14 2.23633e-14 85.1067 -7.6431 -6.61954 -10.9988 -4.77089 19.6884 -0.596182 21.3909 3.15581 5.20926e-10 3.08406e-10 1.63299e-10 9.04098e-10 5.33201e-10 2.73522e-10 5.20925e-10 3.0841e-10 1.63286e-10 7.73091 5.47488 0.417314 5.20922e-10 3.08408e-10 1.63299e-10 2.90554 0.965183 0.102902 5.20928e-10 3.08408e-10 1.63302e-10 10.2786 0.731801 0.0259123 5.20925e-10 3.08411e-10 1.63306e-10 2.22167 -0.733487 -0.20892 -2.22558e-15 7.63333e-14 2.21645e-14 -81.6805 8.0116 0.603904 6.00191 -2.04459 -10.4892 2.36147 39.304 -6.60638 -1.66295e-10 1.35177e-10 7.53944e-10 -2.60594e-10 2.41267e-10 1.30461e-09 -1.66301e-10 1.35189e-10 7.53954e-10 -7.73091 5.47488 -0.417314 -1.66291e-10 1.35188e-10 7.53941e-10 -2.90554 0.965183 -0.102902 -1.66303e-10 1.3519e-10 7.53944e-10 -10.2786 0.731801 -0.0259123 -1.66298e-10 1.35189e-10 7.53938e-10 -2.22167 -0.733487 0.20892 -2.03217e-16 0.0 -3.88251e-19 2.36512 -11.8407 0.938377 -0.0199004 16.7577 0.307849 -1.52218 -13.3447 -4.60653 2.03217e-16 0.0 3.88251e-19 1.29539 -9.12088 -9.88561 0.105638 12.8317 -0.291897 1.76277 -13.4956 4.26887
42.2247 84.6275 207.905 179.854 1.3477 -172.492 -2.38357 -7.91418 4.07243 6.16727 5.16598 1.1111 -3.08088 7.09042 -0.162677 5.99747 -2.35496 -1.72763 -0.0 0.0 0.0 -0.0 0.0 0.0 4.38676e-15 2.09062e-14 3.31967e-14 91.2396 -7.3104 -7.01989 -11.7855 -5.15233 21.3487 -0.631392 21.4907 3.17854 3.21872e-10 2.18869e-10 2.37252e-10 5.60568e-10 3.7793e-10 4.03649e-10 3.21872e-10 2.18872e-10 2.37239e-10 7.73091 5.47488 0.417314 3.21868e-10 2.18871e-10 2.37252e-10 2.90554 0.965183 0.102902 3.21874e-10 2.18871e-10 2.37254e-10 10.2786 0.731801 0.0259123 3.2187e-10 2.18874e-10 2.37258e-10 2.22167 -0.733487 -0.20892 4.33131e-15 2.09072e-14 3.30041e-14 -87.4688 8.88814 0.514613 6.46948 -2.21631 -11.3608 2.95588 41.8701 -7.32617 1.55956e-11 1.02269e-10 4.60736e-10 4.33168e-11 1.80822e-10 7.94565e-10 1.55902e-11 1.02279e-10 4.60745e-10 -7.73091 5.47488 -0.417314 1.55997e-11 1.02278e-10 4.60734e-10 -2.90554 0.965183 -0.102902 1.55899e-11 1.02279e-10 4.60735e-10 -10.2786 0.731801 -0.0259123 1.55949e-11 1.02279e-10 4.6073e-10 -2.22167 -0.733487 0.20892 -2.03217e-16 0.0 -3.88251e-19 2.38479 -12.1239 1.09686 -0.0226539 17.3079 0.317023 -1.68607 -14.2282 -5.00233 2.03217e-16 0.0 3.88251e-19 1.14525 -9.65856 -10.7043 0.121282 14.042 -0.325224 2.04399 -15.1954 4.75337
